<svg viewBox="0 0 82.91 27.88"  xmlns="http://www.w3.org/2000/svg" data-name="Layer 1" width="81" height="34"  xmlns:xlink="http://www.w3.org/1999/xlink">
    <path className="highlight active" style="fill:#00aef9" d="M78.66,25.15h0c-1.14,7-3.92,10.46-10.2,12a22.75,22.75,0,0,1-8.1.4,16.75,16.75,0,0,1-5.51-1.56,6.58,6.58,0,0,1-1.47-1c-2.49-2.12-4.23-5.32-5.29-9.79L49.9,27V25.54h27V27Z" transform="translate(-0.66 -11.12)"></path>
    <path className="highlight active" style="fill:#00aef9" d="M49.9,23.29l-1.82,1.82a39.88,39.88,0,0,1-.75-4.26,4.48,4.48,0,0,1,0-.64,4.37,4.37,0,0,1,.91-2.58c4.63-5.94,22.49-6.51,29-3.13a3.58,3.58,0,0,1,1,.76,4,4,0,0,1,1.15,3,55.47,55.47,0,0,1-.6,6.85l-1.81-1.8v1.46h-27Z" transform="translate(-0.66 -11.12)"></path>
    <path className="highlight inactive" style="fill:#acacac" d="M19.13,35.86,21,37.69a22.18,22.18,0,0,1-5.2-.59C7.68,35.19,5.37,30,5,18.22a4,4,0,0,1,.4-1.92,4.08,4.08,0,0,1,1.74-1.8c3-1.56,8.4-2.28,13.81-2l-1.79,1.79h1.46V35.86Z" transform="translate(-0.66 -11.12)"></path>
    <path className="highlight inactive" style="fill:#adacac" d="M36.9,20.85C36,27.64,34.05,32.2,30.82,34.94a6.16,6.16,0,0,1-1.47,1,16.56,16.56,0,0,1-5.49,1.56,25.52,25.52,0,0,1-2.9.19l0,0,1.82-1.8H21.37V14.28h1.41L21,12.5h0c5.59.28,11.18,1.61,14.09,4.13a8.24,8.24,0,0,1,1,1A4.35,4.35,0,0,1,36.9,20.85Z" transform="translate(-0.66 -11.12)"></path>
    <path className="glasses" d="M82.57,12.38a119.44,119.44,0,0,0-18.48-1.26c-15,0-16.9,4.44-21.84,5l-.14,0-.14,0c-4.93-.52-6.84-5-21.83-5a119.93,119.93,0,0,0-18.5,1.26,1.19,1.19,0,0,0-1,1.18v2.61A1.74,1.74,0,0,0,1,17.29C4.2,21,3.77,29.64,7.48,34.66a4.07,4.07,0,0,0,.81.85c6.15,5,21,4.42,24.67-.39,3.93-4.61,6.32-13.63,7.31-14.54A3.13,3.13,0,0,1,42,19.89h.29a3,3,0,0,1,1.69.69c1,.91,3.39,9.93,7.33,14.54,3.65,4.81,18.52,5.39,24.66.39a4.4,4.4,0,0,0,.82-.85c3.69-5,3.27-13.67,6.44-17.37a1.69,1.69,0,0,0,.38-1.12V13.56A1.19,1.19,0,0,0,82.57,12.38ZM36.9,20.85C36,27.64,34.05,32.2,30.82,34.94a6.16,6.16,0,0,1-1.47,1,16.56,16.56,0,0,1-5.49,1.56,25.52,25.52,0,0,1-2.9.19,22.18,22.18,0,0,1-5.2-.59C7.68,35.19,5.37,30,5,18.22a4,4,0,0,1,.4-1.92,4.08,4.08,0,0,1,1.74-1.8c3-1.56,8.4-2.28,13.81-2l0,0,0,0c5.59.28,11.18,1.61,14.09,4.13a8.24,8.24,0,0,1,1,1A4.35,4.35,0,0,1,36.9,20.85Zm41.78,4.23h0v0h0l0,0c-1.14,7-3.92,10.46-10.2,12a22.75,22.75,0,0,1-8.1.4,16.75,16.75,0,0,1-5.51-1.56,6.58,6.58,0,0,1-1.47-1c-2.49-2.12-4.23-5.32-5.29-9.79l0,0h0a39.88,39.88,0,0,1-.75-4.26,4.48,4.48,0,0,1,0-.64,4.37,4.37,0,0,1,.91-2.58c4.63-5.94,22.49-6.51,29-3.13a3.58,3.58,0,0,1,1,.76,4,4,0,0,1,1.15,3,55.47,55.47,0,0,1-.6,6.85Z" transform="translate(-0.66 -11.12)"></path>
    <path className="arrow" d="M78.68,25.08v0h0s0,0,0,0h0L76.87,27V25.54h-27V27l-1.8-1.82a.08.08,0,0,1,0,0l1.82-1.82v1.44h27V23.27l1.81,1.8Z" transform="translate(-0.66 -11.12)"></path>
    <path className="arrow" d="M22.8,35.86,21,37.66l0,0-1.83-1.83h1.44V14.28H19.11l1.79-1.79H21l1.79,1.78H21.37V35.86Z" transform="translate(-0.66 -11.12)"></path>
</svg>