<svg viewBox="0 0 79.59 42"  xmlns="http://www.w3.org/2000/svg" data-name="Layer 1" width="81" height="34"  xmlns:xlink="http://www.w3.org/1999/xlink">
              <path className="highlight inactive" style="fill:#adacac" d="M82.25,34.21v10l-1.78-1.77v1.39H4.56V42.42L2.77,44.21V16.61c.09,1,.24,2,.37,2.85A137.15,137.15,0,0,0,5.52,33.37c.21.88,1,5.92,2.35,5.58.82-.19.67-1.4.8-2.48A.87.87,0,0,0,8.94,36c.11-.76.16-1.54.2-2.3,0-.33,0-.66.06-1a.57.57,0,0,0,0-.26c.57-1.62,1-3.35,1.5-5.06a3.82,3.82,0,0,0,1.75.84.68.68,0,0,0,.47.19H13c1.63-.28,2.61-2.07,3.21-3.13a.92.92,0,0,0,.1-.56,1,1,0,0,1,.45-.48c.92-.37,3.47.24,5.28.39s3.86.28,5.28.4c4,.33,8.31.93,10.92.51,1.74-.28,3.47-1.39,5.16-1.92A41,41,0,0,1,49,22.06c2-.33,4-.27,6.11-.43a24.44,24.44,0,0,1,6.45,0c3.69.7,6.28,3.55,8.59,6,1.11,1.17,2.29,2.7,3.41,4.09s2.06,3,3.77,3.67C78.84,35.9,81.81,35.55,82.25,34.21Z" transform="translate(-2.7 -4)"></path>
              <path className="glasses" d="M79.47,31c-3.54-2.62-6.79-5-9.88-7.48-2.33-1.87-4.28-3.46-7.17-4.21-3.14-.83-8-.25-10.22-.25-2.59,0-5.73-.35-8.56-.39-7.4-.1-14.62-.36-22.18-.35-1.46,0-4.14.25-4.47-.12s-.39-3.5-.49-4.5c-.1-1.29-.36-3.93.11-4.65.71-1,4.41-.65,6.23-.56,4.88.26,8.71.53,13.15.93,2.2.19,4.54.83,6.58.52C44.2,9.7,45.93,8.72,48,8.28c4.61-1,11.36-1.36,15.61.51,2.28,1,4.77,4.23,6.48,6.4,1.54,2,3.67,6.09,5.64,6.94,1.08.45,4.21.45,4.34-1,.09-.89-1.75-2.15-2.59-2.86-3-2.52-6.29-5.47-8.7-7.75-2.14-2-3.71-3.46-6.58-4.22-2.5-.66-5.85-.74-9-1.07C40.34,4,26.08,4,13.91,4A7.75,7.75,0,0,0,8.75,6.34C7.32,8.11,7.29,11.11,5.35,12c-.81.35-1.42-.07-2,.55s-.73,2.42-.59,4.11c.09,1,.25,2,.37,2.85A138.11,138.11,0,0,0,5.52,33.37c.21.88,1,5.92,2.35,5.58.81-.19.67-1.4.8-2.48A.87.87,0,0,0,8.94,36a22.51,22.51,0,0,0,.19-2.3c0-.33,0-.66.07-1a.59.59,0,0,0,0-.27c.57-1.62,1-3.35,1.5-5.06a3.82,3.82,0,0,0,1.75.84.68.68,0,0,0,.47.19H13c1.63-.28,2.61-2.07,3.2-3.13a.88.88,0,0,0,.11-.57,1,1,0,0,1,.45-.47c.91-.37,3.47.24,5.28.39s3.86.28,5.28.4c4,.33,8.31.94,10.92.51,1.74-.28,3.47-1.39,5.16-1.92A41.35,41.35,0,0,1,49,22.06c2-.33,4-.27,6.11-.43a24.44,24.44,0,0,1,6.45,0c3.69.71,6.28,3.55,8.59,6,1.11,1.17,2.29,2.7,3.41,4.09s2.06,3,3.77,3.67c1.47.55,4.44.2,4.87-1.14a.86.86,0,0,0,.05-.23C82.39,32.81,80.37,31.65,79.47,31ZM12.73,6.33c1.27.52,1.83,3.35,2.13,5.18.4,2.42.51,4.31.84,6.68-1.36-.28-2.49.4-3.65,0a11.28,11.28,0,0,1-2.7-2.86C7.94,12.58,9.35,4.93,12.73,6.33Zm-8,7.53c1.12-.34,1.41,2.79,1.54,4.35-.65-.12-1.2.07-1.53-.26C4.16,17.33,3.93,14.12,4.77,13.86ZM7.85,32.54c0,.34,0,.67-.08,1,0,.54,0,1.05-.1,1.55A5.49,5.49,0,0,1,7,33c0-.09-.85-4.08-1.07-5.32-.13-.79-.68-3-.35-3.55.12-.21,1.31-.48,1.52-.28a25.92,25.92,0,0,1,.36,3.27c.25,2,.3,3.6.43,5.12A.94.94,0,0,0,7.85,32.54Zm7.05-8.28c-.61,1.09-1.27,2.18-2.12,2.32a.5.5,0,0,0-.23.09,6.84,6.84,0,0,1,.34-2.61c.62-.48,1.44.31,2.13,0A1,1,0,0,0,14.9,24.26Z" transform="translate(-2.7 -4)"></path>
              <polygon className="arrow" points="77.76 42 77.76 40.61 1.85 40.61 1.85 42 0.07 40.22 0.07 40.21 1.85 38.42 1.85 39.81 77.76 39.81 77.76 38.42 79.54 40.19 79.56 40.21 77.76 42"></polygon>
            </svg>