<svg viewBox="0 0 80.47 32" xmlns="http://www.w3.org/2000/svg" data-name="Layer 1" width="81" height="34"  xmlns:xlink="http://www.w3.org/1999/xlink">
              <path className="highlight inactive" style="fill:#adacac" d="M46.55,23.37V38.81H38.7V22.73a0,0,0,0,1,0,0c.93-2.32,1.6-4.16,2-4.53a2.93,2.93,0,0,1,1.63-.68h.28a2.82,2.82,0,0,1,1.65.68C44.75,18.6,45.49,20.75,46.55,23.37Z" transform="translate(-2.27 -9)"></path>
              <path className="glasses" d="M81.78,10.23A115.93,115.93,0,0,0,63.83,9c-14.55,0-16.4,4.31-21.19,4.82l-.14,0-.14,0C37.57,13.31,35.72,9,21.17,9A115.62,115.62,0,0,0,3.23,10.23a1.16,1.16,0,0,0-1,1.14v2.54A1.67,1.67,0,0,0,2.64,15c3.07,3.58,2.65,12,6.23,16.85a4.9,4.9,0,0,0,.81.83c6,4.86,20.38,4.3,23.94-.38,2.18-2.54,3.85-6.49,5.08-9.56a0,0,0,0,1,0,0c.93-2.32,1.6-4.16,2-4.53a2.86,2.86,0,0,1,1.63-.68h.28a2.82,2.82,0,0,1,1.65.68c.46.41,1.21,2.56,2.27,5.18,1.2,3,2.81,6.55,4.83,8.92,3.56,4.68,18,5.24,23.95.38a4.44,4.44,0,0,0,.79-.83C79.71,27,79.29,18.57,82.37,15a1.66,1.66,0,0,0,.36-1.08V11.37A1.16,1.16,0,0,0,81.78,10.23ZM31.55,32.12a6.56,6.56,0,0,1-1.43,1,16.2,16.2,0,0,1-5.34,1.52,22.34,22.34,0,0,1-7.86-.39C9.08,32.37,6.83,27.35,6.43,15.89a3.91,3.91,0,0,1,2.08-3.6c6.26-3.29,23.59-2.73,28.1,3a4.25,4.25,0,0,1,.83,3.12C36.61,25,34.68,29.46,31.55,32.12ZM78,22.56l0,0c-1.09,6.82-3.8,10.19-9.91,11.63a22.33,22.33,0,0,1-7.86.39,16.27,16.27,0,0,1-5.34-1.52,6.05,6.05,0,0,1-1.42-1c-3.13-2.66-5.06-7.09-5.9-13.68a4.21,4.21,0,0,1,.84-3.12c4.49-5.76,21.83-6.32,28.1-3a3.89,3.89,0,0,1,2.07,3.6A53.15,53.15,0,0,1,78,22.56Z" transform="translate(-2.27 -9)"></path>
              <polygon className="arrow" points="46.63 31.98 46.63 30.6 34.15 30.6 34.15 32 32.37 30.23 34.15 28.45 34.15 29.81 46.63 29.81 46.63 28.42 48.41 30.2 46.63 31.98"></polygon>
            </svg>