
  <svg xmlns="http://www.w3.org/2000/svg" data-name="Layer 1" width="81" height="34"  xmlns:xlink="http://www.w3.org/1999/xlink">
    <path
      className="highlight active"
      style="fill:#00aef9"
      d="M80.61 2.85V30.2l-1.8-1.76v1.39h-77v-1.39L.04 30.19V4.9A1.67 1.67 0 0 0 .42 6C3.5 9.59 3.07 18 6.66 22.87a4.49 4.49 0 0 0 .8.83c6 4.86 20.4 4.29 24-.39 3.8-4.46 6.12-13.22 7.1-14.1a2.92 2.92 0 0 1 1.64-.68h.27a2.87 2.87 0 0 1 1.66.68c1 .88 3.29 9.64 7.1 14.1 3.57 4.68 18 5.25 24 .39a4.09 4.09 0 0 0 .78-.83C77.55 18 77.13 9.58 80.21 6a1.66 1.66 0 0 0 .37-1.09v-2Z"
    />
    <path
      className="glasses"
      style="fill:gray"
      d="M79.62 1.22A118 118 0 0 0 61.66 0C47.1 0 45.25 4.31 40.45 4.82h-.27C35.38 4.31 33.53 0 18.96 0A117.77 117.77 0 0 0 1.01 1.22a1.18 1.18 0 0 0-1 1.15V4.9A1.67 1.67 0 0 0 .42 6C3.5 9.59 3.07 18 6.66 22.87a4.49 4.49 0 0 0 .8.83c6 4.86 20.4 4.29 24-.39 3.8-4.46 6.12-13.22 7.1-14.1a2.92 2.92 0 0 1 1.64-.68h.27a2.87 2.87 0 0 1 1.66.68c1 .88 3.29 9.64 7.1 14.1 3.57 4.68 18 5.25 24 .39a4.09 4.09 0 0 0 .78-.83C77.55 18 77.13 9.58 80.21 6a1.66 1.66 0 0 0 .37-1.09V2.37a1.17 1.17 0 0 0-.96-1.15ZM29.35 23.13a6.31 6.31 0 0 1-1.42 1 16.18 16.18 0 0 1-5.34 1.51 22.44 22.44 0 0 1-7.88-.38C6.87 23.38 4.62 18.35 4.21 6.9a4 4 0 0 1 .4-1.9 3.7 3.7 0 0 1 1.68-1.75C12.18.16 27.9.47 33.48 5.3a7.06 7.06 0 0 1 .93 1 4.28 4.28 0 0 1 .85 3.13c-.85 6.57-2.78 11.05-5.91 13.7ZM75.81 4.62a2.46 2.46 0 0 1 .17.27.75.75 0 0 1 .06.13c0 .08.08.18.12.26a2.53 2.53 0 0 1 .12.36.72.72 0 0 1 0 .21.94.94 0 0 1 .06.27.66.66 0 0 1 0 .23 3.41 3.41 0 0 1 0 .55 56.66 56.66 0 0 1-.53 6.66c-1.09 6.83-3.79 10.2-9.92 11.65a22.37 22.37 0 0 1-7.87.38 15.91 15.91 0 0 1-5.33-1.51 6.21 6.21 0 0 1-1.44-1c-3.12-2.65-5.05-7.09-5.9-13.68v-.96c0-.09 0-.23.05-.33a3.58 3.58 0 0 1 .25-.88 3.83 3.83 0 0 1 .56-1c4.49-5.76 21.85-6.32 28.12-3a2.48 2.48 0 0 1 .55.36 2.93 2.93 0 0 1 .42.37 3 3 0 0 1 .51.66Z"
    />
    <path
      className="arrow"
      style="fill:gray"
      d="M78.84 32v-1.38H1.77V32L0 30.23l.04-.05 1.73-1.74v1.39h77.07v-1.39l1.75 1.76.02.03L78.84 32z"
    />
  </svg>
  