<?xml version="1.0" encoding="UTF-8"?><svg id="Layer_2" xmlns="http://www.w3.org/2000/svg" viewBox="0 0 4535.43 2834.65"><defs><style>.cls-1{fill:none;}.cls-2{fill:#fff;}</style></defs><g id="Layer_1-2"><g id="svg_1"><path class="cls-2" d="m2260.96,1815.61c-5.93,0-11.84-.14-17.76-.42-10.93-.52-21.76-1.51-32.2-2.95-13.4-1.84-26.55-4.47-39.06-7.8-54.84-14.62-108.43-45.45-159.28-91.64-50.86-46.2-86.32-96.66-105.39-149.98-16.32-45.6-23.19-95.66-29.83-144.08-1.01-7.35-2.04-14.85-3.1-22.3-7.07,3.62-15.46,3.52-24.59-.44-.23-.1-.46-.21-.68-.34-37.69-21.35-57.13-77.03-66.81-119.98-12.48-55.4-14.71-114.73-12.64-151.79.06-1.14.4-2.25.97-3.24,11.49-19.67,31.96-30.26,52.14-26.98,12.76,2.08,23.01,9.24,29.2,19.95.08-16.84-2.3-35.77-4.33-51.91-.83-6.64-1.62-12.91-2.17-18.48,0-.05,0-.1-.01-.14-6.82-86.84-2.74-159.96,12.48-223.53,19.43-81.2,57.61-145.35,113.47-190.65,47.2-38.28,110.26-64.56,187.42-78.1,80.04-14.04,162.38-12.65,238.1,4.03,74.36,16.38,134.35,45.78,178.32,87.4,42.8,40.51,75.01,97.73,93.15,165.47,12.69,47.39,19.05,99.1,20.64,167.66.56,24.1.24,49.09-.96,76.4-.1,2.37-.73,8.29-1.82,18.55-1.23,11.51-3.59,33.73-4.53,48.2,1.01-1.73,1.75-3.46,2.54-5.32,2.03-4.74,4.33-10.12,11.15-14.72.31-.21.64-.4.98-.56,17-7.95,42.11-10.55,65.2,22.2.59.84,1,1.8,1.19,2.82,7.59,40.13,3.47,98.6-10.75,152.6-15.59,59.21-40.52,102.94-68.38,119.99-.29.18-.59.33-.89.47-8.94,3.88-17.18,4.05-24.15.66-8.41,71.71-21.24,127.86-40.09,175.8-25.55,64.95-62.68,116.44-113.54,157.4-68.26,54.98-156.3,85.75-243.99,85.76Zm-381.44-440.89c.51,0,1.03.06,1.55.17,2.92.64,5.15,3.02,5.59,5.98,1.78,11.82,3.46,24.06,5.09,35.91,6.55,47.69,13.31,97,29.12,141.18,18.27,51.06,52.42,99.56,101.51,144.15,49.12,44.62,100.69,74.36,153.29,88.38,11.94,3.18,24.49,5.69,37.31,7.45h0c10.02,1.38,20.42,2.33,30.92,2.83,89.99,4.31,181.84-25.64,252-82.15,48.85-39.35,84.56-88.88,109.16-151.44,19.57-49.76,32.51-108.86,40.73-185.99.32-3.03,2.51-5.53,5.48-6.25,2.97-.72,6.06.5,7.74,3.05,4.49,6.82,9.59,8.28,17.53,4.97,24.54-15.33,46.94-55.77,61.51-111.08,13.52-51.35,17.63-106.58,10.81-144.68-9-12.4-23.33-26.61-45.82-16.42-2.95,2.14-3.93,4.43-5.51,8.12-1.73,4.04-3.85,9.01-8.99,14.35-1.65,4.02-4.06,6.71-7.18,8-2.13.88-5.52,1.49-9.64-.59-5.16-2.61-5.74-7.21-3.87-30.76,1.04-13.06,2.76-29.26,4.02-41.09.89-8.38,1.66-15.62,1.75-17.66,1.19-26.99,1.5-51.66.95-75.43-1.56-67.36-7.77-118.02-20.15-164.26-17.44-65.16-48.26-120.04-89.12-158.71-42.04-39.79-99.74-67.97-171.5-83.78-73.91-16.28-154.3-17.63-232.5-3.91-74.71,13.11-135.55,38.37-180.82,75.09-53.33,43.26-89.85,104.76-108.52,182.8-14.85,62.06-18.82,133.69-12.13,218.97.53,5.36,1.3,11.51,2.12,18.03,2.98,23.72,6.69,53.23,2.68,75.55-.4,2.23-1.82,4.14-3.84,5.17-4.11,2.09-7.51,1.47-9.64.59-3.55-1.47-6.18-4.74-7.82-9.73-.08-.26-.15-.52-.21-.78-2.62-12.56-10.9-20.87-22.7-22.79-13.76-2.24-27.91,5.01-36.47,18.56-1.85,36.18.44,92.95,12.4,146.01,12.9,57.27,33.47,95.43,59.51,110.4,8,3.37,13.13,1.93,17.64-4.93,1.35-2.06,3.64-3.25,6.03-3.25Z"/></g><rect class="cls-1" width="4535.43" height="2834.65"/></g></svg>