<svg data-v-6e021274="" fill="currentColor" xmlns="http://www.w3.org/2000/svg" viewBox="0 0 470.71 176.91"><g id="Layer_1-2"><rect x="136.51" y="138" width="1.5" height="18.08"></rect><rect x="140.23" y="138" width="1.5" height="10.87"></rect><rect x="149.06" y="138" width="1.5" height="10.87"></rect><rect x="143.17" y="138" width="1.5" height="10.87"></rect><rect x="146.12" y="138" width="1.5" height="10.87"></rect><rect x="157.04" y="138" width="1.5" height="10.87"></rect><rect x="165.88" y="138" width="1.5" height="10.87"></rect><rect x="159.99" y="138" width="1.5" height="10.87"></rect><rect x="162.93" y="138" width="1.5" height="10.87"></rect><rect x="169.78" y="138" width="1.5" height="18.08"></rect><rect x="153.14" y="138" width="1.5" height="11.6"></rect><rect x="173.5" y="138" width="1.5" height="10.87"></rect><rect x="182.33" y="138" width="1.5" height="10.87"></rect><rect x="176.44" y="138" width="1.5" height="10.87"></rect><rect x="179.39" y="138" width="1.5" height="10.87"></rect><rect x="190.31" y="138" width="1.5" height="10.87"></rect><rect x="199.15" y="138" width="1.5" height="10.87"></rect><rect x="193.26" y="138" width="1.5" height="10.87"></rect><rect x="196.2" y="138" width="1.5" height="10.87"></rect><rect x="203.05" y="138" width="1.5" height="18.08"></rect><rect x="186.41" y="138" width="1.5" height="11.6"></rect><rect x="206.77" y="138" width="1.5" height="10.87"></rect><rect x="215.6" y="138" width="1.5" height="10.87"></rect><rect x="209.71" y="138" width="1.5" height="10.87"></rect><rect x="212.66" y="138" width="1.5" height="10.87"></rect><rect x="223.58" y="138" width="1.5" height="10.87"></rect><rect x="232.42" y="138" width="1.5" height="10.87"></rect><rect x="226.53" y="138" width="1.5" height="10.87"></rect><rect x="229.47" y="138" width="1.5" height="10.87"></rect><rect x="236.32" y="138" width="1.5" height="18.08"></rect><rect x="219.68" y="138" width="1.5" height="11.6"></rect><rect x="240.04" y="138" width="1.5" height="10.87"></rect><rect x="248.87" y="138" width="1.5" height="10.87"></rect><rect x="242.98" y="138" width="1.5" height="10.87"></rect><rect x="245.93" y="138" width="1.5" height="10.87"></rect><rect x="256.85" y="138" width="1.5" height="10.87"></rect><rect x="265.69" y="138" width="1.5" height="10.87"></rect><rect x="259.8" y="138" width="1.5" height="10.87"></rect><rect x="262.74" y="138" width="1.5" height="10.87"></rect><rect x="269.59" y="138" width="1.5" height="18.08"></rect><rect x="252.95" y="138" width="1.5" height="11.6"></rect><rect x="273.31" y="138" width="1.5" height="10.87"></rect><rect x="282.14" y="138" width="1.5" height="10.87"></rect><rect x="276.25" y="138" width="1.5" height="10.87"></rect><rect x="279.2" y="138" width="1.5" height="10.87"></rect><rect x="290.12" y="138" width="1.5" height="10.87"></rect><rect x="298.96" y="138" width="1.5" height="10.87"></rect><rect x="293.07" y="138" width="1.5" height="10.87"></rect><rect x="296.01" y="138" width="1.5" height="10.87"></rect><rect x="302.86" y="138" width="1.5" height="18.08"></rect><rect x="286.22" y="138" width="1.5" height="11.6"></rect><rect x="306.58" y="138" width="1.5" height="10.87"></rect><rect x="315.41" y="138" width="1.5" height="10.87"></rect><rect x="309.52" y="138" width="1.5" height="10.87"></rect><rect x="312.47" y="138" width="1.5" height="10.87"></rect><rect x="323.39" y="138" width="1.5" height="10.87"></rect><rect x="332.23" y="138" width="1.5" height="10.87"></rect><rect x="326.34" y="138" width="1.5" height="10.87"></rect><rect x="329.28" y="138" width="1.5" height="10.87"></rect><rect x="336.13" y="138" width="1.5" height="18.08"></rect><rect x="319.49" y="138" width="1.5" height="11.6"></rect><rect x="339.85" y="138" width="1.5" height="10.87"></rect><rect x="348.68" y="138" width="1.5" height="10.87"></rect><rect x="342.79" y="138" width="1.5" height="10.87"></rect><rect x="345.74" y="138" width="1.5" height="10.87"></rect><rect x="356.66" y="138" width="1.5" height="10.87"></rect><rect x="365.5" y="138" width="1.5" height="10.87"></rect><rect x="359.61" y="138" width="1.5" height="10.87"></rect><rect x="362.55" y="138" width="1.5" height="10.87"></rect><rect x="369.4" y="138" width="1.5" height="18.08"></rect><rect x="352.76" y="138" width="1.5" height="11.6"></rect><rect x="373.12" y="138" width="1.5" height="10.87"></rect><rect x="381.95" y="138" width="1.5" height="10.87"></rect><rect x="376.06" y="138" width="1.5" height="10.87"></rect><rect x="379.01" y="138" width="1.5" height="10.87"></rect><rect x="389.93" y="138" width="1.5" height="10.87"></rect><rect x="398.77" y="138" width="1.5" height="10.87"></rect><rect x="392.88" y="138" width="1.5" height="10.87"></rect><rect x="395.82" y="138" width="1.5" height="10.87"></rect><rect x="402.67" y="138" width="1.5" height="18.08"></rect><rect x="386.03" y="138" width="1.5" height="11.6"></rect><rect x="406.39" y="138" width="1.5" height="10.87"></rect><rect x="415.22" y="138" width="1.5" height="10.87"></rect><rect x="409.33" y="138" width="1.5" height="10.87"></rect><rect x="412.28" y="138" width="1.5" height="10.87"></rect><rect x="423.2" y="138" width="1.5" height="10.87"></rect><rect x="432.04" y="138" width="1.5" height="10.87"></rect><rect x="426.15" y="138" width="1.5" height="10.87"></rect><rect x="429.09" y="138" width="1.5" height="10.87"></rect><rect x="435.94" y="138" width="1.5" height="18.08"></rect><rect x="419.3" y="138" width="1.5" height="11.6"></rect><rect x="439.65" y="138" width="1.5" height="10.87"></rect><rect x="448.49" y="138" width="1.5" height="10.87"></rect><rect x="442.6" y="138" width="1.5" height="10.87"></rect><rect x="445.55" y="138" width="1.5" height="10.87"></rect><rect x="456.47" y="138" width="1.5" height="10.87"></rect><rect x="465.31" y="138" width="1.5" height="10.87"></rect><rect x="459.42" y="138" width="1.5" height="10.87"></rect><rect x="462.36" y="138" width="1.5" height="10.87"></rect><rect x="469.21" y="138" width="1.5" height="18.08"></rect><rect x="452.57" y="138" width="1.5" height="11.6"></rect><path d="m134.56,162.94c0-4.45,6.41-4.44,6.41,0v1.15c0,4.44-6.41,4.45-6.41,0v-1.15Zm1.4,1.15c0,2.71,3.62,2.71,3.62,0v-1.15c0-2.66-3.62-2.69-3.62,0v1.15Z"></path><g><path d="m164.92,166.05h1.3v-4.47l-1.24.36v-1.28l2.63-.87v6.26h1.24v1.19h-3.93v-1.19Z"></path><path d="m169.72,162.94c0-4.45,6.41-4.44,6.41,0v1.15c0,4.44-6.41,4.45-6.41,0v-1.15Zm1.4,1.15c0,2.71,3.62,2.71,3.62,0v-1.15c0-2.66-3.62-2.69-3.62,0v1.15Z"></path></g><g><path d="m197.02,161.95c.14-1.76,1.66-2.26,3.09-2.26s2.9.55,2.9,2.3c0,1.9-1.43,2.33-2.99,2.33-.62,0-1.62.16-1.62.97v.64h4.63v1.31h-6.04v-1.96c0-1.71,1.55-2.23,3.02-2.23.56,0,1.6-.17,1.6-1.03s-.64-1.09-1.5-1.12c-.82,0-1.66.3-1.69,1.04h-1.4Z"></path><path d="m204.2,162.94c0-4.45,6.41-4.44,6.41,0v1.15c0,4.44-6.41,4.45-6.41,0v-1.15Zm1.4,1.15c0,2.71,3.62,2.71,3.62,0v-1.15c0-2.66-3.62-2.69-3.62,0v1.15Z"></path></g><g><path d="m232.14,163.99v-1.15h1.08c.76,0,1.55-.2,1.57-.89,0-.43-.34-.99-1.53-.99-.66,0-1.56.23-1.56.92h-1.41c0-1.61,1.6-2.19,2.97-2.19s2.92.68,2.93,2.27c0,.68-.38,1.27-1.03,1.47.71.23,1.21.84,1.21,1.57,0,1.82-1.71,2.36-3.15,2.36s-3.04-.6-3.05-2.29h1.42c0,.77,1.03,1.03,1.64,1.03.71,0,1.66-.3,1.66-1.1,0-.45-.25-1-1.59-1h-1.16Z"></path><path d="m237.48,162.94c0-4.45,6.41-4.44,6.41,0v1.15c0,4.44-6.41,4.45-6.41,0v-1.15Zm1.4,1.15c0,2.71,3.62,2.71,3.62,0v-1.15c0-2.66-3.62-2.69-3.62,0v1.15Z"></path></g><g><path d="m268.77,159.8v4.67h.87v1.36h-.87v1.42h-1.38v-1.42h-3.98l-.13-1.43,3.35-4.6h2.14Zm-1.38,4.67v-3.45l-2.52,3.45h2.52Z"></path><path d="m270.69,162.94c0-4.45,6.41-4.44,6.41,0v1.15c0,4.44-6.41,4.45-6.41,0v-1.15Zm1.4,1.15c0,2.71,3.62,2.71,3.62,0v-1.15c0-2.66-3.62-2.69-3.62,0v1.15Z"></path></g><g><path d="m302.45,161.12h-4.03v1.31h1.45c1.59,0,3,.65,2.99,2.4,0,1.69-1.42,2.5-2.92,2.5-1.64,0-3.05-.59-3.06-2.33h1.4c0,.82.94,1.03,1.64,1.03s1.54-.32,1.54-1.2c.01-.84-.83-1.09-1.6-1.09h-2.82v-3.94h5.4v1.32Z"></path><path d="m303.9,162.94c0-4.45,6.41-4.44,6.41,0v1.15c0,4.44-6.41,4.45-6.41,0v-1.15Zm1.4,1.15c0,2.71,3.62,2.71,3.62,0v-1.15c0-2.66-3.62-2.69-3.62,0v1.15Z"></path></g><g><path d="m331.46,162.08v1.12c.33-.51,1.14-.79,1.73-.79,1.5,0,3.08.63,3.08,2.48,0,1.65-1.59,2.47-3.09,2.47s-3.11-.82-3.11-2.49v-2.78c0-1.66,1.53-2.44,3.07-2.44,1.62,0,3.06.64,3.06,2.2h-1.41c0-.66-.83-.99-1.63-.99-.84-.01-1.69.45-1.69,1.26v-.04Zm3.41,2.81c0-.82-.75-1.26-1.68-1.26s-1.74.43-1.73,1.26c.01.82.8,1.21,1.71,1.21s1.69-.39,1.69-1.21Z"></path><path d="m337.37,162.94c0-4.45,6.41-4.44,6.41,0v1.15c0,4.44-6.41,4.45-6.41,0v-1.15Zm1.4,1.15c0,2.71,3.62,2.71,3.62,0v-1.15c0-2.66-3.62-2.69-3.62,0v1.15Z"></path></g><g><path d="m364.3,167.24l3.05-6.11h-3.63v-1.34h5.47l.07.75-3.34,6.71h-1.62Z"></path><path d="m369.93,162.94c0-4.45,6.41-4.44,6.41,0v1.15c0,4.44-6.41,4.45-6.41,0v-1.15Zm1.4,1.15c0,2.71,3.62,2.71,3.62,0v-1.15c0-2.66-3.62-2.69-3.62,0v1.15Z"></path></g><g><path d="m137.99,29.07c-27.37,0-46.14,21.15-46.14,21.15,0,0,20.33,21.58,45.59,21.58s45.59-21.58,45.59-21.58c0,0-17.67-21.15-45.04-21.15Zm16.18,21.08c0,9-7.11,16.32-16.02,16.69v-1.46h-1.5v1.45c-8.87-.42-15.93-7.72-15.93-16.69s7.49-16.73,16.73-16.73,16.73,7.49,16.73,16.73Zm-56.65.06s11.35-12.61,28.93-16.89c-5.48,3.59-9.11,9.79-9.11,16.83s3.58,13.16,9,16.76c-16.68-4.32-28.81-16.7-28.81-16.7Zm51.03,16.7c5.42-3.6,9-9.76,9-16.76s-3.85-13.62-9.61-17.15c18.17,3.92,29.43,17.21,29.43,17.21,0,0-12.14,12.38-28.81,16.7Z"></path><path d="m136.65,60.05v1.53h1.5v-1.53c5.16-.36,9.23-4.65,9.23-9.9s-4.45-9.94-9.94-9.94c-.22,0-.44.02-.66.03.42.9.66,1.89.66,2.95,0,3.84-3.11,6.96-6.96,6.96-1.05,0-2.05-.24-2.95-.66-.01.22-.03.44-.03.66,0,5.22,4.03,9.49,9.14,9.9Z"></path><path d="m163.5,28.01c-2.12-5.67,1.92-13.7,1.97-13.78l-1.26-.65-1.26-.65c-.18.35-3.78,7.46-2.7,13.88-1.04-.36-2.1-.71-3.2-1.04l.07-.05c-3.39-4.8-.67-13.69-.64-13.78l-2.71-.85c-.11.36-2.41,7.87-.27,13.73-1.42-.34-2.89-.65-4.39-.91-3.75-3.94-2.41-12.71-2.39-12.86,0,0,0,0,0,0l-2.8-.45c-.06.36-1.16,7.54,1.42,12.75-1.56-.18-3.16-.31-4.79-.38-3.65-3.34-3.41-11.51-3.4-11.59l-2.84-.11c-.01.34-.21,7.03,2.58,11.63-1.73.01-3.42.09-5.08.23-2.85-2.38-3.88-8.22-4.04-10.38l-2.83.2c.02.32.49,6.5,3.4,10.56-1.75.23-3.46.53-5.12.87-2.77-1.95-4.25-7.32-4.6-9.34l-2.8.48c.05.3,1.08,6.05,4.1,9.62-1.67.43-3.28.91-4.84,1.42-2.74-1.44-4.67-6.49-5.2-8.41l-2.74.75c1.27,4.63,3.22,7.29,4.79,8.78-1.51.57-2.96,1.17-4.35,1.78-2.69-.77-5.17-5.78-5.84-7.49l-2.65,1.03c.26.66,2.2,5.46,5.35,7.94-1.38.68-2.7,1.38-3.93,2.07l.03-.21c-2.18-.28-4.92-4.06-6.14-6.38l-2.51,1.32c.31.6,2.67,4.93,5.82,6.92-1.21.74-2.33,1.47-3.34,2.16v-.26s-.02,0-.03,0c-1.79,0-4.74-3-6.28-5.15l-2.31,1.65c.36.51,2.98,4.08,6,5.62-1.02.76-1.88,1.43-2.56,1.99-1.51.14-4.59-2.13-6.26-3.78l-1.99,2.02c.83.82,4.85,4.6,8.18,4.6.28,0,.55-.03.81-.08.2-.19,19.72-17.7,47.51-17.7s46.71,18.37,46.9,18.55l1.99-2.02c-.52-.52-8.94-8.69-22.83-14.25Z"></path><rect x="136.65" y="126.35" width="1.5" height="3.72"></rect><rect x="136.65" y="111.11" width="1.5" height="3.81"></rect><rect x="136.65" y="118.73" width="1.5" height="3.81"></rect><rect x="136.65" y="103.49" width="1.5" height="3.81"></rect><rect x="136.65" y="80.63" width="1.5" height="3.81"></rect><rect x="136.65" y="95.87" width="1.5" height="3.81"></rect><rect x="136.65" y="73.01" width="1.5" height="3.81"></rect><rect x="136.65" y="88.25" width="1.5" height="3.81"></rect><rect x="136.65" y="131.97" width="1.5" height="2"></rect></g><g><g><path d="m329.5,28.91c-27.37,0-45.04,21.15-45.04,21.15,0,0,20.33,21.58,45.59,21.58s45.59-21.58,45.59-21.58c0,0-18.77-21.15-46.14-21.15Zm.55,4.35c9.24,0,16.73,7.49,16.73,16.73s-7.09,16.3-15.98,16.69v-1.08h-1.5v1.08c-8.89-.4-15.98-7.7-15.98-16.69s7.49-16.73,16.73-16.73Zm-39.92,16.78s11.26-13.29,29.43-17.21c-5.76,3.54-9.61,9.89-9.61,17.15s3.58,13.16,9,16.76c-16.68-4.32-28.81-16.7-28.81-16.7Zm51.03,16.7c5.42-3.6,9-9.76,9-16.76s-3.63-13.24-9.11-16.83c17.58,4.27,28.93,16.89,28.93,16.89,0,0-12.14,12.38-28.81,16.7Z"></path><path d="m329.3,59.89v1.83h1.5v-1.83c5.14-.38,9.19-4.66,9.19-9.9s-4.45-9.94-9.94-9.94c-.22,0-.44.02-.66.03.42.9.66,1.89.66,2.95,0,3.84-3.11,6.96-6.96,6.96-1.05,0-2.05-.24-2.95-.66-.01.22-.03.44-.03.66,0,5.23,4.05,9.51,9.19,9.9Z"></path><path d="m384.55,36.73c-1.67,1.64-4.74,3.91-6.26,3.78-.68-.55-1.54-1.23-2.56-1.99,3.01-1.55,5.63-5.11,6-5.62l-2.31-1.65c-1.53,2.15-4.49,5.15-6.28,5.15,0,0-.02,0-.03,0v.26c-1.02-.69-2.14-1.41-3.35-2.16,3.16-1.99,5.51-6.32,5.82-6.92l-2.51-1.32c-1.22,2.32-3.96,6.09-6.14,6.38l.03.21c-1.23-.69-2.55-1.39-3.93-2.07,3.15-2.47,5.09-7.28,5.35-7.94l-2.65-1.03c-.66,1.71-3.15,6.72-5.84,7.49-1.39-.62-2.84-1.21-4.35-1.78,1.58-1.49,3.52-4.14,4.79-8.78l-2.74-.75c-.53,1.92-2.45,6.98-5.2,8.41-1.56-.51-3.18-.99-4.84-1.42,3.02-3.57,4.05-9.32,4.1-9.62l-2.8-.48c-.35,2.03-1.83,7.39-4.6,9.34-1.66-.35-3.37-.64-5.12-.87,2.91-4.06,3.38-10.24,3.4-10.56l-2.83-.2c-.16,2.16-1.18,8-4.04,10.38-1.66-.14-3.36-.21-5.08-.23,2.79-4.6,2.59-11.29,2.58-11.63l-2.84.11c0,.08.24,8.25-3.4,11.59-1.63.08-3.23.2-4.79.38,2.58-5.21,1.48-12.39,1.42-12.75l-2.8.45s0,0,0,0c.02.15,1.36,8.92-2.39,12.86-1.5.26-2.96.57-4.39.91,2.14-5.87-.15-13.37-.27-13.73l-2.71.85c.03.09,2.74,8.98-.64,13.78l.07.05c-1.09.32-2.16.67-3.2,1.04,1.08-6.41-2.52-13.53-2.7-13.88l-1.3.67-1.22.63c.04.08,4.09,8.11,1.97,13.78-13.9,5.56-22.31,13.73-22.83,14.25l1.99,2.02c.19-.19,19.15-18.55,46.9-18.55s47.31,17.52,47.51,17.7c.26.06.54.08.81.08,3.33,0,7.35-3.79,8.18-4.6l-1.99-2.02Z"></path><rect x="329.3" y="104.42" width="1.5" height="3.88"></rect><rect x="329.3" y="119.94" width="1.5" height="3.88"></rect><rect x="329.3" y="127.71" width="1.5" height="3.82"></rect><rect x="329.3" y="112.18" width="1.5" height="3.88"></rect><rect x="329.3" y="81.13" width="1.5" height="3.88"></rect><rect x="329.3" y="96.65" width="1.5" height="3.88"></rect><rect x="329.3" y="73.36" width="1.5" height="3.88"></rect><rect x="329.3" y="88.89" width="1.5" height="3.88"></rect></g><rect x="329.3" y="133.47" width="1.5" height="2"></rect></g></g></svg>